<svg width="90" height="90" viewBox="0 0 90 90" fill="none" xmlns="http://www.w3.org/2000/svg">
<path d="M49.9417 72H80.0528C81.0092 72.0001 81.9488 71.7506 82.777 71.2766C83.6053 70.8027 84.293 70.1209 84.771 69.2999C85.249 68.4789 85.5004 67.5476 85.5 66.5997C85.4996 65.6519 85.2473 64.7208 84.7686 63.9002L64.5468 29.186C64.0689 28.3652 63.3813 27.6835 62.5532 27.2096C61.7252 26.7357 60.7858 26.4862 59.8296 26.4862C58.8734 26.4862 57.934 26.7357 57.106 27.2096C56.2779 27.6835 55.5903 28.3652 55.1124 29.186L49.9417 38.0681L39.8323 20.6994C39.3539 19.8786 38.6661 19.1971 37.8378 18.7233C37.0095 18.2494 36.07 18 35.1136 18C34.1572 18 33.2177 18.2494 32.3894 18.7233C31.5611 19.1971 30.8733 19.8786 30.3949 20.6994L5.23138 63.9002C4.75267 64.7208 4.50042 65.6519 4.5 66.5997C4.49958 67.5476 4.75102 68.4789 5.22901 69.2999C5.70701 70.1209 6.39471 70.8027 7.22295 71.2766C8.05119 71.7506 8.99076 72.0001 9.94716 72H28.8484C36.3373 72 41.8601 68.7397 45.6603 62.3791L54.8864 46.5431L59.8281 38.0681L74.6592 63.525H54.8864L49.9417 72ZM28.5403 63.5163L15.3496 63.5134L35.1224 29.5728L44.9883 46.5431L38.3827 57.8857C35.859 62.0127 32.9919 63.5163 28.5403 63.5163Z" fill="#00DC82"/>
</svg>
