<?xml version="1.0" encoding="utf-8"?>

<!DOCTYPE svg PUBLIC "-//W3C//DTD SVG 1.1//EN" "http://www.w3.org/Graphics/SVG/1.1/DTD/svg11.dtd">
<!-- Uploaded to: SVG Repo, www.svgrepo.com, Generator: SVG Repo Mixer Tools -->
<svg height="800px" width="800px" version="1.1" id="_x32_" xmlns="http://www.w3.org/2000/svg" xmlns:xlink="http://www.w3.org/1999/xlink" 
	 viewBox="0 0 512 512"  xml:space="preserve">
<style type="text/css">
	.st0{fill:#999999;}
</style>
<g>
	<path class="st0" d="M341.942,356.432c-20.705-12.637-28.134-11.364-28.134-36.612c0-8.837,0-25.256,0-40.403
		c11.364-12.62,15.497-11.049,25.107-60.597c19.433,0,18.174-25.248,27.34-47.644c7.471-18.238,1.213-25.632-5.08-28.654
		c5.144-66.462,5.144-112.236-70.292-126.436c-27.344-23.437-68.605-15.48-88.158-11.569c-19.536,3.911-37.159,0-37.159,0
		l3.356,31.49c-28.608,34.332-14.302,80.106-18.908,106.916c-6.002,3.27-11.416,10.809-4.269,28.253
		c9.165,22.396,7.906,47.644,27.34,47.644c9.61,49.548,13.742,47.977,25.107,60.597c0,15.147,0,31.566,0,40.403
		c0,25.248-8.581,25.683-28.133,36.612c-47.14,26.349-108.569,41.658-119.575,124.01C48.468,495.504,134.952,511.948,256,512
		c121.048-0.052,207.528-16.496,205.517-31.558C450.511,398.09,388.519,384.847,341.942,356.432z"/>
</g>
</svg>